<svg xmlns="http://www.w3.org/2000/svg" viewBox="0 0 512 512" role="img" aria-label="Assistant Archer">
  <defs>
    <linearGradient id="bg" x1="0" y1="0" x2="1" y2="1">
      <stop offset="0" stop-color="#13283f"/>
      <stop offset="1" stop-color="#07131f"/>
    </linearGradient>
    <filter id="shadow" x="-20%" y="-20%" width="140%" height="140%">
      <feDropShadow dx="0" dy="7" stdDeviation="8" flood-color="#000" flood-opacity=".32"/>
    </filter>
  </defs>
  <rect width="512" height="512" rx="96" fill="url(#bg)"/>
  <path d="M112 84C38 180 38 332 112 428" fill="none" stroke="#fff" stroke-width="19" stroke-linecap="round"/>
  <g filter="url(#shadow)">
    <circle cx="260" cy="260" r="154" fill="#f7f7f4"/>
    <circle cx="260" cy="260" r="126" fill="#111820"/>
    <circle cx="260" cy="260" r="98" fill="#168ee1"/>
    <circle cx="260" cy="260" r="69" fill="#ed2d24"/>
    <circle cx="260" cy="260" r="40" fill="#ffd12a"/>
    <circle cx="260" cy="260" r="9" fill="#17202b"/>
  </g>
  <g filter="url(#shadow)" stroke-linejoin="round">
    <path d="M258 260L414 104" fill="none" stroke="#fff" stroke-width="18" stroke-linecap="round"/>
    <path d="M258 260L414 104" fill="none" stroke="#13283f" stroke-width="9" stroke-linecap="round"/>
    <path d="M407 111l10-61 38-28-11 61z" fill="#168ee1" stroke="#fff" stroke-width="5"/>
    <path d="M418 122l61-9 27-37-60 9z" fill="#168ee1" stroke="#fff" stroke-width="5"/>
    <path d="M244 274l12-35 23 23z" fill="#fff" stroke="#13283f" stroke-width="5"/>
  </g>
</svg>